<svg xmlns="http://www.w3.org/2000/svg" viewBox="0 0 64 64" role="img" aria-label="Percorium primary mark">
<title>Percorium primary mark</title>
<g>
  <path d="M18 54V12C18 9.8 19.8 8 22 8H35.5C47.5 8 54 15.2 54 25.8C54 36.7 46.3 43 35 43H29V54C29 56.2 27.2 58 25 58H22C19.8 58 18 56.2 18 54Z" fill="#4da2ff" stroke="#000000" stroke-width="4" stroke-linejoin="round"/>
  <path d="M29 16H35C41.4 16 45 19.2 45 25.2C45 31.2 41.1 34.8 35 34.8H29V16Z" fill="#ffffff" stroke="#000000" stroke-width="3.4" stroke-linejoin="round"/>
  <ellipse cx="33" cy="31" rx="29" ry="10" transform="rotate(-15 33 31)" fill="none" stroke="#000000" stroke-width="8"/>
  <ellipse cx="33" cy="31" rx="29" ry="10" transform="rotate(-15 33 31)" fill="none" stroke="#ffffff" stroke-width="4"/>
  <circle cx="52" cy="17" r="7" fill="#ffd731" stroke="#000000" stroke-width="4"/>
</g>
</svg>
